<?xml version="1.0" encoding="UTF-8" standalone="no"?>
<svg width="20px" height="20px" viewBox="0 0 20 20" version="1.1" xmlns="http://www.w3.org/2000/svg" xmlns:xlink="http://www.w3.org/1999/xlink">
    <!-- Generator: Sketch 40.1 (33804) - http://www.bohemiancoding.com/sketch -->
    <title>Rectangle 15</title>
    <desc>Created with Sketch.</desc>
    <defs></defs>
    <g id="Final-1" stroke="none" stroke-width="1" fill="none" fill-rule="evenodd">
        <g id="Education/Categories/Agile-methods/ScrumMaster/Book-course" transform="translate(-241.000000, -1119.000000)" fill="#202020">
            <path d="M242,1136.0058 C242,1137.1055 242.893931,1138 243.994202,1138 L258.005798,1138 C259.1055,1138 260,1137.10607 260,1136.0058 L260,1121.9942 C260,1120.8945 259.106069,1120 258.005798,1120 L243.994202,1120 C242.8945,1120 242,1120.89393 242,1121.9942 L242,1136.0058 Z M243.994202,1119 L258.005798,1119 C259.65945,1119 261,1120.34331 261,1121.9942 L261,1136.0058 C261,1137.65945 259.656688,1139 258.005798,1139 L243.994202,1139 C242.34055,1139 241,1137.65669 241,1136.0058 L241,1121.9942 C241,1120.34055 242.343312,1119 243.994202,1119 Z" id="Rectangle-15"></path>
        </g>
    </g>
</svg>