<?xml version="1.0" encoding="UTF-8" standalone="no"?>
<svg width="177px" height="52px" viewBox="0 0 177 52" version="1.1" xmlns="http://www.w3.org/2000/svg" xmlns:xlink="http://www.w3.org/1999/xlink">
    <!-- Generator: Sketch 40.2 (33826) - http://www.bohemiancoding.com/sketch -->
    <title>Edument_green_logo</title>
    <desc>Created with Sketch.</desc>
    <defs>
        <polygon id="path-1" points="0.0979849054 19.3788873 14.607128 19.3788873 14.607128 0.0470087854 0.0979849054 0.0470087854 0.0979849054 19.3788873"></polygon>
        <polygon id="path-3" points="14.7402492 19.1167329 14.7402492 0.0473084589 0.179585128 0.0473084589 0.179585128 19.1167329"></polygon>
    </defs>
    <g id="Final-1" stroke="none" stroke-width="1" fill="none" fill-rule="evenodd">
        <g id="Start" transform="translate(-279.000000, -20.000000)">
            <g id="Edument_green_logo" transform="translate(279.000000, 20.214919)">
                <g id="Page-1-Copy-5" transform="translate(60.092785, 15.607996)">
                    <polygon id="Fill-1" fill="#FFFFFF" points="0 0.199662474 0 19.2696863 12.6892535 19.2696863 12.6892535 16.1135248 3.90035847 16.1135248 3.90035847 10.9789188 11.3893323 10.9789188 11.3893323 7.92704373 3.90035847 7.92704373 3.90035847 3.3821952 12.6630766 3.3821952 12.6630766 0.199662474"></polygon>
                    <g id="Group-16" transform="translate(14.674260, 0.152774)">
                        <path d="M3.93704151,3.22960145 L3.93704151,15.9603317 L5.82237341,15.9603317 C7.34777291,15.9603317 8.51324,15.4586782 9.31996454,14.4541726 C10.1254992,13.4502664 10.5371905,12.0136315 10.5550384,10.1454668 L10.5550384,9.13676578 C10.5550384,7.19847748 10.1558406,5.72887856 9.35863496,4.72916772 C8.56083437,3.72945687 7.39536728,3.22960145 5.86104384,3.22960145 L3.93704151,3.22960145 Z M0.0366830376,19.1170925 L0.0366830376,0.0470687201 L5.86104384,0.0470687201 C7.52565686,0.0470687201 9.01417072,0.424657349 10.3271804,1.17983461 C11.64019,1.93501186 12.6652537,3.00904174 13.4017765,4.40192424 C14.1382994,5.79480674 14.5071557,7.3770829 14.5071557,9.14935206 L14.5071557,10.0273955 C14.5071557,11.7996646 14.1448436,13.3759473 13.4214092,14.7556442 C12.6979748,16.135341 11.6770756,17.2045761 10.3599015,17.9645482 C9.04213242,18.7239209 7.55599827,19.1087017 5.90030919,19.1170925 L0.0366830376,19.1170925 Z" id="Fill-2" fill="#FFFFFF"></path>
                        <g id="Group-6" transform="translate(16.262079, 0.000000)">
                            <mask id="mask-2" fill="white">
                                <use xlink:href="#path-1"></use>
                            </mask>
                            <g id="Clip-5"></g>
                            <path d="M14.607128,0.0470087854 L14.607128,12.6075245 C14.607128,14.6944508 13.9592497,16.3444532 12.663493,17.558131 C11.3677363,18.772408 9.59722585,19.3789472 7.35255647,19.3789472 C5.142393,19.3789472 3.38735067,18.7891898 2.08742949,17.6108735 C0.787508314,16.4319579 0.124161808,14.8125222 0.0979849054,12.7513678 L0.0979849054,0.0470087854 L3.99834337,0.0470087854 L3.99834337,12.6332964 C3.99834337,13.8823356 4.29521324,14.7927438 4.88895299,15.3645208 C5.48269273,15.9362979 6.30369558,16.2221864 7.35255647,16.2221864 C9.54546698,16.2221864 10.6591752,15.0612512 10.694276,12.7381821 L10.694276,0.0470087854 L14.607128,0.0470087854 Z" id="Fill-4" fill="#FFFFFF" mask="url(#mask-2)"></path>
                        </g>
                        <polygon id="Fill-7" fill="#FFFFFF" points="36.6227118 0.0470087854 43.6042107 16.8772727 50.6118864 0.0470087854 52.7441141 0.0470087854 52.7441141 19.1170326 51.1449434 19.1170326 51.1449434 10.8130795 51.2752329 2.29935492 44.2282918 19.1170326 42.993218 19.1170326 35.9724537 2.3652831 36.1027433 10.7603369 36.1027433 19.1170326 34.5029776 19.1170326 34.5029776 0.0470087854"></polygon>
                        <polygon id="Fill-9" fill="#FFFFFF" points="66.6626111 9.97489266 57.8088688 9.97489266 57.8088688 17.7544171 67.9887092 17.7544171 67.9887092 19.1167329 56.209698 19.1167329 56.209698 0.0473084589 67.9238619 0.0473084589 67.9238619 1.40902491 57.8088688 1.40902491 57.8088688 8.61257686 66.6626111 8.61257686"></polygon>
                        <polygon id="Fill-11" fill="#FFFFFF" points="85.1833051 19.1169726 83.5841343 19.1169726 72.702277 2.79735237 72.702277 19.1169726 71.0900177 19.1169726 71.0900177 0.0469488507 72.702277 0.0469488507 83.5972228 16.3797548 83.5972228 0.0469488507 85.1833051 0.0469488507"></polygon>
                        <g id="Group-15" transform="translate(87.454651, 0.000000)">
                            <mask id="mask-4" fill="white">
                                <use xlink:href="#path-3"></use>
                            </mask>
                            <g id="Clip-14"></g>
                            <polygon id="Fill-13" fill="#FFFFFF" mask="url(#mask-4)" points="14.7404871 1.40902491 8.25337475 1.40902491 8.25337475 19.1167329 6.65420398 19.1167329 6.65420398 1.40902491 0.179585128 1.40902491 0.179585128 0.0473084589 14.7404871 0.0473084589"></polygon>
                        </g>
                    </g>
                </g>
                <g id="Page-1">
                    <path d="M31.7524079,35.4509398 C41.1516628,35.4509398 44.7367859,27.3947168 43.4568716,21.8669891 L19.3955967,29.694711 C22.5123678,33.163432 27.0899512,35.4509398 31.7524079,35.4509398" id="Fill-3" fill="#6AB842"></path>
                    <path d="M41.3774754,16.9640807 C38.3864654,12.3372465 32.9905051,9.15508831 27.3603687,8.80921513 C21.665803,8.45959603 13.68957,12.6344227 15.6844026,22.5305162 C16.0331886,24.2605064 16.7276629,25.9087108 17.6761377,27.4170675 L41.3774754,16.9640807 Z" id="Fill-5" fill="#6AB842"></path>
                    <path d="M43.5006712,22.055721 C43.5235144,22.1536366 43.5411659,22.228239 43.5006712,22.055721" id="Fill-7" fill="#6FAD55"></path>
                    <g id="Group-11" transform="translate(0.000000, 0.185361)" fill="#FFFFFF">
                        <path d="M12.3856805,12.6138201 C15.3729733,8.16179548 20.482099,5.6083274 26.4034066,5.6083274 C26.8308708,5.6083274 27.2626715,5.62206244 27.6950917,5.64953251 C34.348664,6.05346743 39.8133903,10.3612742 42.6904098,14.5760573 L43.4338257,15.6642468 L11.6397865,25.2388156 C9.81470051,20.0301153 10.704941,15.4363701 12.3856805,12.6138201 L12.3856805,12.6138201 Z M48.2325753,30.0829131 C47.588901,31.9939561 46.5741383,33.7251949 45.1851896,35.2653919 L45.2031555,35.2959836 L43.7888068,36.6838466 L43.7615482,36.6557522 C43.5936601,36.7980971 43.425772,36.9341988 43.259123,37.063433 L42.6024389,37.5516511 L42.5894291,37.5366675 C41.579003,38.2327841 40.4948549,38.8102799 39.35557,39.2566686 L38.5694077,39.5532205 L38.5533004,39.5432314 C38.4882515,39.5644582 38.4225831,39.5850608 38.3569147,39.6056634 L38.3569147,39.6231443 L37.717577,39.8048214 L36.3973943,40.1725458 C36.3973943,40.1725458 33.9831512,40.5671159 31.2554343,40.3979252 C31.1779952,40.3929306 31.0986975,40.3866875 31.0596682,40.3816929 C31.0057705,40.3773227 30.9518729,40.3729524 30.8967362,40.3660849 L30.8806288,40.3648363 L30.6278674,40.3392391 C30.2220863,40.2949124 29.812588,40.2362264 29.3882214,40.1650539 L29.0549233,40.1082408 C28.4831126,40.0002335 27.9311263,39.8728722 27.4150718,39.7305273 C21.4652666,38.1079201 16.1925893,33.9686797 13.1712233,28.5995292 L49.7212656,17.5047416 C48.780225,15.8259456 45.0098674,8.12808221 36.4178382,3.55244222 C32.4504754,1.43974394 27.0433638,0.438959267 22.9390886,0.438959267 C14.9671922,0.438959267 7.28522794,4.93343767 3.95162717,9.76130286 C0.677499683,14.5367252 -2.24102721,22.4293764 2.44930756,32.9067117 C6.40985572,41.7595667 15.2515487,48.770054 24.9729505,50.7678775 C26.3488895,51.0506943 27.8041261,51.1942879 29.298392,51.1942879 L29.2990115,51.1942879 C36.6842289,51.1942879 43.8891679,47.7786342 46.9185877,44.5646357 C50.3779496,40.8973811 51.7414983,36.3635705 51.7414983,36.3635705 C52.3888896,34.3033151 52.7531634,32.583314 52.7531634,29.8400527 L48.2325753,30.0829131 Z" id="Fill-9"></path>
                    </g>
                </g>
            </g>
        </g>
    </g>
</svg>